<svg width="1440" height="869" viewBox="0 0 1440 869" fill="none" xmlns="http://www.w3.org/2000/svg">
<g clip-path="url(#clip0_102_7486)">
<rect x="-263" y="915.688" width="1183.79" height="170.827" transform="rotate(-59.8546 -263 915.688)" fill="url(#paint0_linear_102_7486)" fill-opacity="0.02"/>
<rect x="-262.317" y="915.506" width="1182.79" height="169.827" transform="rotate(-59.8546 -262.317 915.506)" stroke="#A5B3CD" stroke-opacity="0.04"/>
<rect x="130.217" y="915.688" width="1183.79" height="170.827" transform="rotate(-59.8546 130.217 915.688)" fill="url(#paint1_linear_102_7486)" fill-opacity="0.04"/>
<rect x="130.901" y="915.506" width="1182.79" height="169.827" transform="rotate(-59.8546 130.901 915.506)" stroke="#A5B3CD" stroke-opacity="0.08"/>
<rect x="523.434" y="915.688" width="1183.79" height="170.827" transform="rotate(-59.8546 523.434 915.688)" fill="url(#paint2_linear_102_7486)" fill-opacity="0.04"/>
<rect x="524.118" y="915.506" width="1182.79" height="169.827" transform="rotate(-59.8546 524.118 915.506)" stroke="#A5B3CD" stroke-opacity="0.08"/>
<rect x="916.651" y="915.688" width="1183.79" height="170.827" transform="rotate(-59.8546 916.651 915.688)" fill="url(#paint3_linear_102_7486)" fill-opacity="0.02"/>
<rect x="917.335" y="915.506" width="1182.79" height="169.827" transform="rotate(-59.8546 917.335 915.506)" stroke="#A5B3CD" stroke-opacity="0.04"/>
</g>
<defs>
<linearGradient id="paint0_linear_102_7486" x1="879.567" y1="980.108" x2="1.68406" y2="1032.57" gradientUnits="userSpaceOnUse">
<stop stop-color="#A5B3CD"/>
<stop offset="1" stop-color="#A5B3CD" stop-opacity="0"/>
</linearGradient>
<linearGradient id="paint1_linear_102_7486" x1="1272.78" y1="980.108" x2="394.901" y2="1032.57" gradientUnits="userSpaceOnUse">
<stop stop-color="#A5B3CD"/>
<stop offset="1" stop-color="#A5B3CD" stop-opacity="0"/>
</linearGradient>
<linearGradient id="paint2_linear_102_7486" x1="1666" y1="980.108" x2="788.118" y2="1032.57" gradientUnits="userSpaceOnUse">
<stop stop-color="#A5B3CD"/>
<stop offset="1" stop-color="#A5B3CD" stop-opacity="0"/>
</linearGradient>
<linearGradient id="paint3_linear_102_7486" x1="2059.22" y1="980.108" x2="1181.34" y2="1032.57" gradientUnits="userSpaceOnUse">
<stop stop-color="#A5B3CD"/>
<stop offset="1" stop-color="#A5B3CD" stop-opacity="0"/>
</linearGradient>
<clipPath id="clip0_102_7486">
<path d="M0 0H1440V813C1440 843.928 1414.93 869 1384 869H56C25.072 869 0 843.928 0 813V0Z" fill="white"/>
</clipPath>
</defs>
</svg>
