<svg width="32" height="32" viewBox="0 0 32 32" fill="none" xmlns="http://www.w3.org/2000/svg">
<path d="M10.6666 29.3333H21.3333C26.6933 29.3333 27.6533 27.1867 27.9333 24.5733L28.9333 13.9067C29.2933 10.6533 28.36 8 22.6666 8H9.33331C3.63997 8 2.70664 10.6533 3.06664 13.9067L4.06664 24.5733C4.34664 27.1867 5.30664 29.3333 10.6666 29.3333Z" stroke="white" stroke-width="2" stroke-miterlimit="10" stroke-linecap="round" stroke-linejoin="round"/>
<path d="M10.6666 8.00033V6.93366C10.6666 4.57366 10.6666 2.66699 14.9333 2.66699H17.0666C21.3333 2.66699 21.3333 4.57366 21.3333 6.93366V8.00033" stroke="white" stroke-width="2" stroke-miterlimit="10" stroke-linecap="round" stroke-linejoin="round"/>
<path d="M18.6667 17.3333V18.6667C18.6667 18.68 18.6667 18.68 18.6667 18.6933C18.6667 20.1467 18.6534 21.3333 16 21.3333C13.36 21.3333 13.3334 20.16 13.3334 18.7067V17.3333C13.3334 16 13.3334 16 14.6667 16H17.3334C18.6667 16 18.6667 16 18.6667 17.3333Z" stroke="white" stroke-width="2" stroke-miterlimit="10" stroke-linecap="round" stroke-linejoin="round"/>
<path d="M28.8666 14.667C25.7866 16.907 22.2666 18.2403 18.6666 18.6937" stroke="white" stroke-width="2" stroke-miterlimit="10" stroke-linecap="round" stroke-linejoin="round"/>
<path d="M3.49329 15.0264C6.49329 17.0797 9.87995 18.3197 13.3333 18.7064" stroke="white" stroke-width="2" stroke-miterlimit="10" stroke-linecap="round" stroke-linejoin="round"/>
</svg>
