<svg width="32" height="32" viewBox="0 0 32 32" fill="none" xmlns="http://www.w3.org/2000/svg">
<path d="M24.6667 16.8667V21.8C24.6667 25.96 20.7867 29.3334 16 29.3334C11.2134 29.3334 7.33337 25.96 7.33337 21.8V16.8667C7.33337 21.0267 11.2134 24 16 24C20.7867 24 24.6667 21.0267 24.6667 16.8667Z" stroke="white" stroke-width="2" stroke-linecap="round" stroke-linejoin="round"/>
<path d="M24.6667 10.2C24.6667 11.4133 24.3334 12.5333 23.7467 13.4933C22.32 15.84 19.3867 17.3333 16 17.3333C12.6134 17.3333 9.68004 15.84 8.25338 13.4933C7.66671 12.5333 7.33337 11.4133 7.33337 10.2C7.33337 8.11996 8.3067 6.23996 9.8667 4.87996C11.44 3.50663 13.6 2.66663 16 2.66663C18.4 2.66663 20.56 3.50663 22.1334 4.86663C23.6934 6.23996 24.6667 8.11996 24.6667 10.2Z" stroke="white" stroke-width="2" stroke-linecap="round" stroke-linejoin="round"/>
<path d="M24.6667 10.2V16.8666C24.6667 21.0266 20.7867 24 16 24C11.2134 24 7.33337 21.0266 7.33337 16.8666V10.2C7.33337 6.03996 11.2134 2.66663 16 2.66663C18.4 2.66663 20.56 3.50663 22.1334 4.86663C23.6934 6.23996 24.6667 8.11996 24.6667 10.2Z" stroke="white" stroke-width="2" stroke-linecap="round" stroke-linejoin="round"/>
</svg>
