<svg width="21" height="20" viewBox="0 0 21 20" fill="none" xmlns="http://www.w3.org/2000/svg">
<g id="Social icons">
<path id="Union" d="M12.3334 2.39575C11.3112 2.39575 10.3308 2.80181 9.60805 3.52461C8.88525 4.24741 8.47919 5.22773 8.47919 6.24992V8.39575H6.41669C6.31313 8.39575 6.22919 8.4797 6.22919 8.58325V11.4166C6.22919 11.5201 6.31313 11.6041 6.41669 11.6041H8.47919V17.4166C8.47919 17.5201 8.56313 17.6041 8.66669 17.6041H11.5C11.6036 17.6041 11.6875 17.5201 11.6875 17.4166V11.6041H13.7683C13.8543 11.6041 13.9293 11.5455 13.9502 11.4621L14.6585 8.62873C14.6881 8.51039 14.5986 8.39575 14.4766 8.39575H11.6875V6.24992C11.6875 6.07863 11.7556 5.91436 11.8767 5.79325C11.9978 5.67213 12.1621 5.60409 12.3334 5.60409H14.5C14.6036 5.60409 14.6875 5.52014 14.6875 5.41659V2.58325C14.6875 2.4797 14.6036 2.39575 14.5 2.39575H12.3334Z" stroke="white" stroke-width="1.2" stroke-linecap="round" stroke-linejoin="round"/>
</g>
</svg>
