<svg width="21" height="20" viewBox="0 0 21 20" fill="none" xmlns="http://www.w3.org/2000/svg">
<g id="vuesax/linear/instagram">
<g id="instagram">
<path id="Vector" d="M8.00002 18.3334H13C17.1667 18.3334 18.8334 16.6667 18.8334 12.5001V7.50008C18.8334 3.33341 17.1667 1.66675 13 1.66675H8.00002C3.83335 1.66675 2.16669 3.33341 2.16669 7.50008V12.5001C2.16669 16.6667 3.83335 18.3334 8.00002 18.3334Z" stroke="white" stroke-width="1.2" stroke-linecap="round" stroke-linejoin="round"/>
<path id="Vector_2" d="M10.5 12.9166C12.1108 12.9166 13.4166 11.6107 13.4166 9.99992C13.4166 8.38909 12.1108 7.08325 10.5 7.08325C8.88915 7.08325 7.58331 8.38909 7.58331 9.99992C7.58331 11.6107 8.88915 12.9166 10.5 12.9166Z" stroke="white" stroke-width="1.2" stroke-linecap="round" stroke-linejoin="round"/>
<path id="Vector_3" d="M15.1968 5.83341H15.2064" stroke="white" stroke-width="1.2" stroke-linecap="round" stroke-linejoin="round"/>
</g>
</g>
</svg>
