<svg width="140" height="30" viewBox="0 0 140 30" fill="none" xmlns="http://www.w3.org/2000/svg">
<path d="M62.0306 7.32715H64.9446V14.9004H62.0306V7.32715Z" fill="white"/>
<path d="M101.855 7.32715H104.769V14.9004H101.855V7.32715Z" fill="white"/>
<path fill-rule="evenodd" clip-rule="evenodd" d="M132.055 13.347C133.673 13.347 135.02 13.4183 136.095 13.5607C137.183 13.7032 138.103 14.0529 138.854 14.6097C139.618 15.1537 140 15.989 140 17.1158C140 19.0972 139.139 20.4312 137.416 21.1176C135.694 21.804 133.758 22.1472 131.608 22.1472C130.416 22.1472 129.173 22.0177 127.878 21.7587C126.583 21.5126 125.437 21.0075 124.439 20.2434C123.442 19.4664 122.944 18.372 122.944 16.9603L126.363 16.9021C126.363 17.718 126.68 18.3267 127.315 18.7281C127.949 19.1167 128.642 19.3563 129.393 19.4469C130.144 19.5376 130.954 19.5829 131.822 19.5829C133.143 19.5829 134.276 19.4016 135.221 19.039C136.167 18.6634 136.646 18.0482 136.659 17.1935V17.174C136.659 16.7596 136.393 16.4488 135.862 16.2416C135.344 16.0344 134.768 15.9113 134.133 15.8725C133.499 15.8207 132.728 15.7883 131.822 15.7753H131.394C129.555 15.7753 128.072 15.7041 126.945 15.5616C125.819 15.4192 124.867 15.063 124.09 14.4932C123.326 13.9104 122.944 13.0038 122.944 11.7735C122.944 9.76609 123.837 8.45157 125.624 7.82993C127.425 7.20828 129.419 6.89746 131.608 6.89746C132.773 6.89746 133.978 7.02697 135.221 7.28599C136.477 7.53206 137.585 8.04362 138.543 8.82068C139.514 9.58478 140 10.6727 140 12.0843H136.6C136.6 11.2555 136.121 10.6338 135.163 10.2194C134.204 9.792 133.039 9.5524 131.666 9.5006C130.164 9.5006 128.888 9.68191 127.839 10.0445C126.803 10.3942 126.285 10.9511 126.285 11.7152C126.285 12.3887 126.777 12.829 127.761 13.0362C128.759 13.2434 129.937 13.347 131.297 13.347H132.055ZM59.0222 21.7004H61.0814L61.0232 15.989V14.4932H52.5144V16.6689H57.4098C56.9307 17.5755 56.2248 18.2619 55.2924 18.7281C54.3728 19.1814 53.3886 19.4081 52.3395 19.4081C51.3294 19.4081 50.3969 19.2203 49.5421 18.8447C48.7003 18.4562 48.0269 17.8993 47.5218 17.174C47.0167 16.4358 46.7642 15.5552 46.7642 14.532C46.7642 13.5607 47.0038 12.706 47.4829 11.9678C47.9751 11.2296 48.642 10.6662 49.4839 10.2777C50.3386 9.87618 51.2905 9.67544 52.3395 9.67544C53.3886 9.67544 54.4052 9.91503 55.3895 10.3942C56.3738 10.8604 57.0602 11.5663 57.4487 12.5117L60.9066 12.4923C60.5828 11.2878 59.9871 10.2712 59.1194 9.44232C58.2516 8.61346 57.222 7.99829 56.0306 7.59681C54.852 7.18238 53.6152 6.97517 52.3201 6.97517C50.6753 6.97517 49.1666 7.30542 47.7938 7.96591C46.421 8.61346 45.3331 9.51355 44.5301 10.6662C43.7272 11.8059 43.3257 13.0945 43.3257 14.532C43.3257 15.9437 43.7142 17.2258 44.4913 18.3785C45.2813 19.5311 46.3627 20.4377 47.7355 21.0982C49.1083 21.7587 50.6365 22.0889 52.3201 22.0889C53.5505 22.0889 54.7031 21.9076 55.778 21.545C56.8659 21.1824 57.8113 20.6708 58.6143 20.0103L59.0222 21.7004ZM80.6326 7.32484H77.2718V15.0566C77.2718 16.1056 76.9999 16.9474 76.4559 17.582C75.9249 18.2166 75.2839 18.6699 74.5327 18.9418C73.7815 19.2009 73.0692 19.3304 72.3958 19.3304C71.6576 19.3304 70.8805 19.2009 70.0646 18.9418C69.2487 18.6699 68.5429 18.2166 67.9472 17.582C67.3514 16.9474 67.0535 16.1056 67.0535 15.0566V14.902H65.9161V7.32872H67.0535V7.32484H63.6733V14.9206C63.6863 16.3063 64.0878 17.5496 64.8778 18.6504C65.6678 19.7383 66.7233 20.5866 68.0443 21.1953C69.3782 21.804 70.8223 22.1083 72.3764 22.1083C73.9305 22.1083 75.3357 21.804 76.5919 21.1953C77.8481 20.5866 78.8324 19.7383 79.5447 18.6504C80.27 17.5626 80.6326 16.3128 80.6326 14.9011V7.32484ZM97.5477 14.1629C98.6356 14.3831 99.458 14.7652 100.015 15.3091C100.572 15.8401 100.85 16.6042 100.85 17.6014V17.6791C100.85 18.8059 100.565 19.6606 99.9954 20.2434C99.4385 20.8262 98.668 21.2147 97.6837 21.409C96.7124 21.5903 95.4237 21.6939 93.8178 21.7198H92.8659L83.5801 21.7004V7.32484H94.7114C96.2138 7.33779 97.4117 7.64862 98.3053 8.25731C99.1989 8.866 99.6458 9.72724 99.6458 10.841V10.9187C99.6458 11.7605 99.4709 12.4469 99.1212 12.9779C98.7716 13.5089 98.2471 13.9039 97.5477 14.1629ZM96.0713 10.2C95.8382 9.95388 95.5338 9.80495 95.1582 9.75314C94.7827 9.68839 94.2387 9.65601 93.5264 9.65601H86.7466V13.0751L91.7781 13.1333H93.5264C94.2517 13.1333 94.7891 13.1139 95.1388 13.0751C95.5014 13.0233 95.8058 12.8743 96.0519 12.6283C96.2979 12.3692 96.421 11.9483 96.421 11.3655C96.421 10.8216 96.3044 10.4331 96.0713 10.2ZM94.1481 19.2332C94.9899 19.2332 95.618 19.2009 96.0324 19.1361C96.4598 19.0713 96.7965 18.903 97.0426 18.631C97.2887 18.3461 97.4117 17.8863 97.4117 17.2517C97.4117 16.643 97.2887 16.2027 97.0426 15.9307C96.7965 15.6588 96.4598 15.4969 96.0324 15.4451C95.618 15.3803 94.9899 15.348 94.1481 15.348H86.7466V19.1944C89.7771 19.1944 91.9529 19.2073 93.2739 19.2332H94.1481ZM120.385 7.32484H117.024V15.0566C117.024 16.1056 116.752 16.9474 116.208 17.582C115.677 18.2166 115.036 18.6699 114.285 18.9418C113.534 19.2009 112.821 19.3304 112.148 19.3304C111.41 19.3304 110.633 19.2009 109.817 18.9418C109.001 18.6699 108.295 18.2166 107.699 17.582C107.103 16.9474 106.806 16.1056 106.806 15.0566V14.902H105.74V7.32872H106.806V7.32484H103.425V14.9206C103.438 16.3063 103.84 17.5496 104.63 18.6504C105.42 19.7383 106.475 20.5866 107.796 21.1953C109.13 21.804 110.574 22.1083 112.128 22.1083C113.683 22.1083 115.088 21.804 116.344 21.1953C117.6 20.5866 118.584 19.7383 119.297 18.6504C120.022 17.5626 120.385 16.3128 120.385 14.9011V7.32484Z" fill="white"/>
<path d="M-4.00543e-05 5.91868V0.402344H20.989L26.2362 5.91868H-4.00543e-05Z" fill="white"/>
<path d="M5.51636 0.402359L5.51636 24.2168L1.74043e-05 18.7677L1.82071e-05 0.402359L5.51636 0.402359Z" fill="white"/>
<rect width="25.9672" height="5.51634" transform="matrix(1 8.74228e-08 8.74228e-08 -1 5.65088 29.5986)" fill="white"/>
<rect width="20.8545" height="5.51634" transform="matrix(1 8.74228e-08 8.74228e-08 -1 10.7635 16.4131)" fill="white"/>
<rect width="18.7017" height="5.51634" transform="matrix(4.37114e-08 1 1 -4.37114e-08 26.2362 10.8965)" fill="white"/>
</svg>
