<svg width="32" height="32" viewBox="0 0 32 32" fill="none" xmlns="http://www.w3.org/2000/svg">
<path d="M11.3333 25.2933H10.6666C5.33329 25.2933 2.66663 23.96 2.66663 17.2933V10.6266C2.66663 5.29331 5.33329 2.62665 10.6666 2.62665H21.3333C26.6666 2.62665 29.3333 5.29331 29.3333 10.6266V17.2933C29.3333 22.6266 26.6666 25.2933 21.3333 25.2933H20.6666C20.2533 25.2933 19.8533 25.4933 19.6 25.8267L17.6 28.4933C16.72 29.6667 15.2799 29.6667 14.3999 28.4933L12.3999 25.8267C12.1866 25.5333 11.7066 25.2933 11.3333 25.2933Z" stroke="#128CFD" stroke-width="2" stroke-miterlimit="10" stroke-linecap="round" stroke-linejoin="round"/>
<path d="M10.6667 11.6L8 14.2667L10.6667 16.9334" stroke="#128CFD" stroke-width="2" stroke-miterlimit="10" stroke-linecap="round" stroke-linejoin="round"/>
<path d="M21.3334 11.6L24 14.2667L21.3334 16.9334" stroke="#128CFD" stroke-width="2" stroke-miterlimit="10" stroke-linecap="round" stroke-linejoin="round"/>
<path d="M17.3333 11.16L14.6666 17.3734" stroke="#128CFD" stroke-width="2" stroke-miterlimit="10" stroke-linecap="round" stroke-linejoin="round"/>
</svg>
