<svg width="33" height="32" viewBox="0 0 33 32" fill="none" xmlns="http://www.w3.org/2000/svg">
<path d="M18.2334 10.8133L19.9934 14.3333C20.2334 14.8133 20.8734 15.2933 21.4067 15.3733L24.5934 15.9066C26.6334 16.2533 27.1134 17.72 25.6467 19.1866L23.1667 21.6666C22.7534 22.08 22.5134 22.8933 22.6467 23.48L23.3534 26.56C23.9134 28.9866 22.6201 29.9333 20.4734 28.6666L17.4867 26.8933C16.94 26.5733 16.06 26.5733 15.5134 26.8933L12.5267 28.6666C10.38 29.9333 9.08668 28.9866 9.64668 26.56L10.3534 23.48C10.4867 22.9066 10.2467 22.0933 9.83337 21.6666L7.35339 19.1866C5.88672 17.72 6.36669 16.24 8.40669 15.9066L11.5934 15.3733C12.1267 15.28 12.7667 14.8133 13.0067 14.3333L14.7667 10.8133C15.7134 8.90663 17.2867 8.90663 18.2334 10.8133Z" stroke="#128CFD" stroke-width="2" stroke-linecap="round" stroke-linejoin="round"/>
<path d="M8.5 12.0001V2.66675" stroke="#128CFD" stroke-width="2" stroke-linecap="round" stroke-linejoin="round"/>
<path d="M24.5 12.0001V2.66675" stroke="#128CFD" stroke-width="2" stroke-linecap="round" stroke-linejoin="round"/>
<path d="M16.5 5.33341V2.66675" stroke="#128CFD" stroke-width="2" stroke-linecap="round" stroke-linejoin="round"/>
</svg>
