<svg width="32" height="32" viewBox="0 0 32 32" fill="none" xmlns="http://www.w3.org/2000/svg">
<path d="M11.56 18.6665H5.33329C3.86663 18.6665 2.66663 19.8665 2.66663 21.3332V29.3332H11.56V18.6665Z" stroke="white" stroke-width="2" stroke-miterlimit="10" stroke-linecap="round" stroke-linejoin="round"/>
<path d="M17.7733 13.3335H14.2133C12.7466 13.3335 11.5466 14.5335 11.5466 16.0002V29.3335H20.44V16.0002C20.44 14.5335 19.2533 13.3335 17.7733 13.3335Z" stroke="white" stroke-width="2" stroke-miterlimit="10" stroke-linecap="round" stroke-linejoin="round"/>
<path d="M26.6666 22.6665H20.4399V29.3332H29.3333V25.3332C29.3333 23.8665 28.1333 22.6665 26.6666 22.6665Z" stroke="white" stroke-width="2" stroke-miterlimit="10" stroke-linecap="round" stroke-linejoin="round"/>
<path d="M16.6934 2.75976L17.4001 4.17309C17.4934 4.37309 17.7467 4.55976 17.9601 4.58642L19.2401 4.79976C20.0534 4.9331 20.2534 5.53307 19.6667 6.1064L18.6667 7.1064C18.4934 7.27974 18.4001 7.59975 18.4534 7.82641L18.7334 9.0531C18.9601 10.0264 18.4401 10.3998 17.5867 9.89311L16.3867 9.18644C16.1734 9.05311 15.8134 9.05311 15.6001 9.18644L14.4001 9.89311C13.5467 10.3998 13.0267 10.0264 13.2534 9.0531L13.5334 7.82641C13.5867 7.59975 13.4934 7.2664 13.3201 7.1064L12.3334 6.11975C11.7467 5.53308 11.9334 4.9464 12.7601 4.81307L14.0401 4.59977C14.2534 4.55977 14.5067 4.37311 14.6001 4.18644L15.3067 2.77307C15.6934 1.99974 16.3067 1.99976 16.6934 2.75976Z" stroke="white" stroke-width="2" stroke-linecap="round" stroke-linejoin="round"/>
</svg>
