<svg width="24" height="24" viewBox="0 0 24 24" fill="none" xmlns="http://www.w3.org/2000/svg">
<g id="vuesax/twotone/slider-vertical">
<g id="slider-vertical">
<path id="Vector" d="M7 6H17C17.62 6 18.17 6.02 18.66 6.09C21.29 6.38 22 7.62 22 11V13C22 16.38 21.29 17.62 18.66 17.91C18.17 17.98 17.62 18 17 18H7C6.38 18 5.83 17.98 5.34 17.91C2.71 17.62 2 16.38 2 13V11C2 7.62 2.71 6.38 5.34 6.09C5.83 6.02 6.38 6 7 6Z" stroke="#128CFD" stroke-width="1.5" stroke-linecap="round" stroke-linejoin="round"/>
<path id="Vector_2" opacity="0.4" d="M17 17.9999C17.62 17.9999 18.17 17.9799 18.66 17.9099C18.67 18.0499 18.67 18.1799 18.67 18.3299V18.6699C18.67 21.3299 18 21.9999 15.33 21.9999H8.66996C5.99996 21.9999 5.32996 21.3299 5.32996 18.6699V18.3299C5.32996 18.1799 5.32996 18.0499 5.33996 17.9099C5.82996 17.9799 6.37996 17.9999 6.99996 17.9999H17Z" stroke="#128CFD" stroke-width="1.5" stroke-linecap="round" stroke-linejoin="round"/>
<path id="Vector_3" opacity="0.4" d="M8.66996 2H15.33C18 2 18.67 2.67 18.67 5.33V5.67C18.67 5.82 18.67 5.95 18.66 6.09C18.17 6.02 17.62 6 17 6H6.99996C6.37996 6 5.82996 6.02 5.33996 6.09C5.32996 5.95 5.32996 5.82 5.32996 5.67V5.33C5.32996 2.67 5.99996 2 8.66996 2Z" stroke="#128CFD" stroke-width="1.5" stroke-linecap="round" stroke-linejoin="round"/>
</g>
</g>
</svg>
