<svg width="32" height="32" viewBox="0 0 32 32" fill="none" xmlns="http://www.w3.org/2000/svg">
<path d="M20.5201 6.9465L22.4 10.7065C22.6534 11.2265 23.3334 11.7198 23.9067 11.8265L27.3067 12.3865C29.4801 12.7465 29.9867 14.3198 28.4267 15.8932L25.7734 18.5465C25.3334 18.9865 25.0801 19.8532 25.2267 20.4798L25.9867 23.7598C26.5867 26.3465 25.2001 27.3598 22.9201 25.9998L19.7334 24.1065C19.16 23.7598 18.2001 23.7598 17.6267 24.1065L14.44 25.9998C12.16 27.3465 10.7734 26.3465 11.3734 23.7598L12.1334 20.4798C12.2801 19.8665 12.0267 18.9998 11.5867 18.5465L8.93341 15.8932C7.37341 14.3332 7.88007 12.7598 10.0534 12.3865L13.4534 11.8265C14.0267 11.7332 14.7067 11.2265 14.9601 10.7065L16.8401 6.9465C17.8401 4.9065 19.4934 4.9065 20.5201 6.9465Z" stroke="white" stroke-width="2" stroke-linecap="round" stroke-linejoin="round"/>
<path d="M10.6666 6.6665H2.66663" stroke="white" stroke-width="2" stroke-linecap="round" stroke-linejoin="round"/>
<path d="M6.66663 25.3335H2.66663" stroke="white" stroke-width="2" stroke-linecap="round" stroke-linejoin="round"/>
<path d="M3.99996 16H2.66663" stroke="white" stroke-width="2" stroke-linecap="round" stroke-linejoin="round"/>
</svg>
