<svg width="21" height="20" viewBox="0 0 21 20" fill="none" xmlns="http://www.w3.org/2000/svg">
<g id="Social icons">
<path id="Vector" d="M18.6748 5.18928C18.7231 5.12197 18.6518 5.03507 18.5745 5.06501C18.0256 5.27778 17.4519 5.42134 16.8667 5.49209C17.5183 5.10282 18.0211 4.51025 18.2999 3.8087C18.3283 3.73723 18.2503 3.67341 18.183 3.71059C17.5774 4.04503 16.9242 4.28586 16.2458 4.42456C16.2174 4.43037 16.1881 4.4207 16.1682 4.39966C15.659 3.86243 14.9888 3.50474 14.2582 3.38113C13.5122 3.25492 12.7455 3.37988 12.0782 3.73641C11.4109 4.09294 10.8808 4.66086 10.5711 5.35112C10.2765 6.00742 10.1971 6.73901 10.3423 7.44161C10.3536 7.49613 10.3109 7.5476 10.2554 7.54415C8.93533 7.46216 7.64558 7.11105 6.46557 6.51197C5.28856 5.91441 4.24628 5.08311 3.40222 4.06933C3.36476 4.02434 3.29377 4.03016 3.26647 4.08196C3.00383 4.58035 2.86632 5.13584 2.86669 5.70042C2.86562 6.2624 3.00354 6.81593 3.26815 7.31172C3.53277 7.80751 3.91587 8.23018 4.38336 8.54209C3.88759 8.5286 3.40148 8.40603 2.9594 8.18381C2.90242 8.15517 2.83408 8.19595 2.83705 8.25965C2.87152 9.00068 3.14357 9.74462 3.61445 10.3154C4.11555 10.9228 4.81107 11.3385 5.58336 11.4921C5.28607 11.5826 4.97742 11.6303 4.66669 11.6338C4.49757 11.6318 4.32879 11.6193 4.1613 11.5964C4.0992 11.5879 4.0485 11.6469 4.07024 11.7057C4.30058 12.3286 4.70752 12.8721 5.24259 13.2689C5.81463 13.6931 6.50467 13.9284 7.21669 13.9421C6.01436 14.8881 4.52993 15.4045 3.00002 15.4088C2.84282 15.4093 2.68569 15.4042 2.52892 15.3935C2.44058 15.3875 2.39996 15.5052 2.4761 15.5504C3.96674 16.435 5.67051 16.9025 7.40836 16.9004C8.69143 16.9137 9.9643 16.6713 11.1526 16.1872C12.3409 15.703 13.4209 14.987 14.3294 14.0808C15.2378 13.1747 15.9567 12.0966 16.4438 10.9095C16.931 9.72244 17.1767 8.45019 17.1667 7.16708V6.76723C17.1667 6.74092 17.1791 6.71618 17.2001 6.70032C17.7654 6.27354 18.2624 5.76401 18.6748 5.18928Z" stroke="white" stroke-width="1.2" stroke-linejoin="round"/>
</g>
</svg>
